<svg width="30" height="30" viewBox="0 0 30 30" fill="none" xmlns="http://www.w3.org/2000/svg">
<g id="admin-outline">
<g id="Group 2">
<path id="Icon" fill-rule="evenodd" clip-rule="evenodd" d="M10 20H20C22.7614 20 25 22.2386 25 25C25 25.5523 24.5523 26 24 26C23.4872 26 23.0645 25.614 23.0067 25.1166L22.9949 24.8237C22.907 23.3072 21.6928 22.093 20.1763 22.0051L20 22H10C8.34315 22 7 23.3431 7 25C7 25.5523 6.55228 26 6 26C5.44772 26 5 25.5523 5 25C5 22.3112 7.12231 20.1182 9.78311 20.0046L10 20H20H10ZM15 6C18.3137 6 21 8.68629 21 12C21 15.3137 18.3137 18 15 18C11.6863 18 9 15.3137 9 12C9 8.68629 11.6863 6 15 6ZM15 8C12.7909 8 11 9.79086 11 12C11 14.2091 12.7909 16 15 16C17.2091 16 19 14.2091 19 12C19 9.79086 17.2091 8 15 8Z" fill="white"/>
<circle id="Ellipse 1" cx="15" cy="15" r="14" stroke="white" stroke-width="2"/>
</g>
</g>
</svg>
